<svg width="48" height="46" viewBox="0 0 48 46" fill="none" xmlns="http://www.w3.org/2000/svg">
<path d="M43.0953 11.25H41.6266V24.4688C41.6243 26.4157 40.8498 28.2823 39.4731 29.659C38.0964 31.0357 36.2298 31.8102 34.2828 31.8125H22.925L18.0781 36.2188H29.6181L40.434 44.8712C40.542 44.9575 40.6723 45.0115 40.8097 45.027C40.9472 45.0426 41.0862 45.019 41.2108 44.959C41.3354 44.899 41.4406 44.805 41.5141 44.6878C41.5877 44.5707 41.6267 44.4352 41.6266 44.2969V36.2188H43.0953C44.264 36.2188 45.3847 35.7545 46.211 34.9282C47.0374 34.1019 47.5016 32.9811 47.5016 31.8125V15.6562C47.5016 14.4876 47.0374 13.3669 46.211 12.5406C45.3847 11.7142 44.264 11.25 43.0953 11.25Z" fill="#65C467"/>
<path d="M34.2812 0.96875H4.90625C3.73764 0.96875 2.61689 1.43298 1.79056 2.25931C0.964229 3.08564 0.5 4.20639 0.5 5.375L0.5 24.4688C0.5 25.6374 0.964229 26.7581 1.79056 27.5844C2.61689 28.4108 3.73764 28.875 4.90625 28.875H7.84375V39.8906C7.84383 40.0328 7.88518 40.1719 7.96278 40.291C8.04038 40.4102 8.1509 40.5042 8.28091 40.5618C8.41093 40.6193 8.55485 40.6379 8.69521 40.6152C8.83557 40.5925 8.96633 40.5296 9.07162 40.4341L21.7881 28.875H34.2812C35.4499 28.875 36.5706 28.4108 37.3969 27.5844C38.2233 26.7581 38.6875 25.6374 38.6875 24.4688V5.375C38.6875 4.20639 38.2233 3.08564 37.3969 2.25931C36.5706 1.43298 35.4499 0.96875 34.2812 0.96875Z" fill="#0C8CE9"/>
</svg>
